@startuml
interface Brand {
    call():void
}

class Vivo {
}

class XiaoMi {
}

abstract class Phone {
    brand:Brand
}

class FoldedPhone {
}

class UpRightPhone {
}

class Client {

}

Vivo ..|> Brand
XiaoMi ..|> Brand
Phone o-- Brand
FoldedPhone --|> Phone
UpRightPhone --|> Phone
Client ..> Phone
Client ..> Brand
@enduml